<svg width="446" height="256" viewBox="0 0 446 256" fill="none" xmlns="http://www.w3.org/2000/svg">
<path d="M365.325 22.3891C365.321 22.3851 365.321 22.3811 365.316 22.3761C349.173 -6.5219 306.853 -7.3619 290.243 22.3761C290.243 22.3811 290.239 22.3851 290.239 22.3891L233.654 113.807C228.724 121.765 217.165 121.765 212.238 113.807L155.654 22.3891C155.649 22.3851 155.647 22.3811 155.647 22.3761C139.038 -7.3619 96.7149 -6.5219 80.5729 22.3761C80.5729 22.3811 80.5689 22.3851 80.5639 22.3891L32.9629 99.2961C76.9799 59.4871 106.964 107.341 106.964 107.341C136.985 155.695 182.098 228.061 185.297 233.196C201.589 263.003 244.511 262.616 260.591 233.196C263.793 228.061 308.905 155.694 338.93 107.341C338.93 107.341 368.911 59.4871 412.925 99.2961L365.325 22.3891Z" fill="url(#paint0_linear_64_129)"/>
<path d="M439.942 142.644L412.926 99.296C368.912 59.487 338.931 107.341 338.931 107.341C335.394 113.036 331.644 119.072 327.783 125.283C357.931 173.782 365.007 184.48 365.007 184.48C365.011 184.484 365.011 184.489 365.013 184.493C376.571 205.186 402.713 212.589 423.407 201.031C444.092 189.477 451.502 163.332 439.942 142.644Z" fill="url(#paint1_linear_64_129)"/>
<path d="M5.94997 142.642L32.966 99.2941C76.98 59.4851 106.961 107.339 106.961 107.339C110.498 113.034 114.248 119.07 118.109 125.281C87.961 173.78 80.885 184.478 80.885 184.478C80.881 184.482 80.881 184.487 80.879 184.491C69.321 205.184 43.179 212.587 22.486 201.029C1.79897 189.475 -5.61003 163.33 5.94997 142.642Z" fill="url(#paint2_linear_64_129)"/>
<defs>
<linearGradient id="paint0_linear_64_129" x1="227.695" y1="263.182" x2="220.869" y2="27.6755" gradientUnits="userSpaceOnUse">
<stop offset="0.0121" stop-color="#39030C"/>
<stop offset="1" stop-color="#EF2614"/>
</linearGradient>
<linearGradient id="paint1_linear_64_129" x1="374.352" y1="113.932" x2="407.03" y2="182.401" gradientUnits="userSpaceOnUse">
<stop stop-color="#FF9703"/>
<stop offset="1" stop-color="#FBBD00"/>
</linearGradient>
<linearGradient id="paint2_linear_64_129" x1="71.5399" y1="113.93" x2="38.8618" y2="182.399" gradientUnits="userSpaceOnUse">
<stop stop-color="#FF9703"/>
<stop offset="1" stop-color="#FBBD00"/>
</linearGradient>
</defs>
</svg>
